<?xml version="1.0" encoding="utf-8"?>
<!-- Generator: Adobe Illustrator 22.1.0, SVG Export Plug-In . SVG Version: 6.00 Build 0)  -->
<svg version="1.1" id="Calque_1" xmlns="http://www.w3.org/2000/svg" xmlns:xlink="http://www.w3.org/1999/xlink" x="0px" y="0px"
	 viewBox="0 0 277.5 89.1" style="enable-background:new 0 0 277.5 89.1;" xml:space="preserve">
<style type="text/css">
	.st0{fill:#1F1C19;}
	.st1{fill:#00AAE3;}
	.st2{fill:#111111;}
</style>
<g>
	<path class="st0" d="M74.5,21.7L64.3,52.9h-7.7l-6.8-21.1l-7.1,21.1H35L24.8,21.7h7.5l7,21.9l7.3-21.9h6.7l7.1,22l7.2-22H74.5z"/>
	<path class="st0" d="M99.5,42.9H81.5c0.7,3,3.2,4.8,6.8,4.8c2.5,0,4.4-0.8,6-2.3l3.7,4c-2.2,2.5-5.6,3.9-9.9,3.9
		c-8.3,0-13.6-5.2-13.6-12.3c0-7.2,5.5-12.3,12.8-12.3c7,0,12.4,4.7,12.4,12.4C99.7,41.5,99.6,42.3,99.5,42.9z M81.4,38.8h11.8
		c-0.5-3-2.8-5-5.9-5C84.1,33.8,81.9,35.7,81.4,38.8z"/>
	<path class="st0" d="M130.3,40.9c0,7.5-5.2,12.3-11.9,12.3c-3.2,0-5.8-1-7.5-3.1v2.8h-6.6v-33h6.9v11.6c1.8-2,4.2-2.9,7.2-2.9
		C125.1,28.6,130.3,33.4,130.3,40.9z M123.3,40.9c0-4.1-2.6-6.6-6.1-6.6c-3.5,0-6.1,2.5-6.1,6.6s2.6,6.6,6.1,6.6
		C120.7,47.5,123.3,45,123.3,40.9z"/>
	<path class="st1" d="M140.3,29.4l7.1,0l-7.2,23.4h-7L140.3,29.4z M141.8,21.9c0.2-2.3,2.2-3.9,5-3.6c2.4,0.3,3.9,1.9,3.7,3.9
		c-0.3,2.5-2.3,4.1-5,3.8C143.1,25.7,141.6,23.9,141.8,21.9z"/>
	<path class="st0" d="M170.8,51.7c-1.4,1-3.5,1.5-5.6,1.5c-5.6,0-8.9-2.9-8.9-8.6v-9.8h-3.7v-5.3h3.7v-5.8h6.9v5.8h6v5.3h-6v9.7
		c0,2,1.1,3.2,3,3.2c1,0,2-0.3,2.8-0.9L170.8,51.7z"/>
	<path class="st0" d="M197.3,42.9h-18.1c0.7,3,3.2,4.8,6.8,4.8c2.5,0,4.4-0.8,6-2.3l3.7,4c-2.2,2.5-5.6,3.9-9.9,3.9
		c-8.3,0-13.6-5.2-13.6-12.3c0-7.2,5.5-12.3,12.8-12.3c7,0,12.4,4.7,12.4,12.4C197.4,41.5,197.3,42.3,197.3,42.9z M179.1,38.8h11.8
		c-0.5-3-2.8-5-5.9-5C181.8,33.8,179.6,35.7,179.1,38.8z"/>
	<path class="st0" d="M200.2,40.9c0-7.2,5.6-12.3,13.3-12.3c5,0,9,2.2,10.7,6.1l-5.4,2.9c-1.3-2.3-3.2-3.3-5.4-3.3
		c-3.5,0-6.3,2.4-6.3,6.6s2.8,6.6,6.3,6.6c2.2,0,4.1-1,5.4-3.3l5.4,2.9c-1.7,3.8-5.7,6-10.7,6C205.8,53.2,200.2,48.1,200.2,40.9z"/>
	<path class="st0" d="M252.5,39.2v13.7h-6.9V40.2c0-3.9-1.8-5.6-4.8-5.6c-3.3,0-5.7,2-5.7,6.4v11.8h-6.9v-33h6.9v11.6
		c1.9-1.9,4.5-2.8,7.6-2.8C248.3,28.6,252.5,31.9,252.5,39.2z"/>
</g>
<g>
	<path class="st2" d="M180,63.2V68h-1.5v-4.6c0-1.6-0.8-2.4-2.2-2.4c-1.6,0-2.6,0.9-2.6,2.7V68h-1.5v-8.2h1.4V61
		c0.6-0.8,1.7-1.3,3-1.3C178.6,59.7,180,60.8,180,63.2z"/>
	<path class="st2" d="M190.2,64.4h-6.7c0.2,1.4,1.4,2.4,3,2.4c1,0,1.8-0.3,2.4-1l0.8,1c-0.7,0.9-1.9,1.3-3.2,1.3
		c-2.7,0-4.4-1.8-4.4-4.2c0-2.4,1.8-4.2,4.1-4.2c2.4,0,4.1,1.7,4.1,4.2C190.2,64,190.2,64.2,190.2,64.4z M183.5,63.3h5.3
		c-0.2-1.4-1.2-2.4-2.6-2.4C184.7,60.9,183.7,61.9,183.5,63.3z"/>
	<path class="st2" d="M197.3,68l-2.4-3.2l-2.4,3.2h-1.7l3.2-4.2l-3.1-4h1.7l2.3,3l2.3-3h1.6l-3.1,4L199,68H197.3z"/>
	<path class="st2" d="M205.3,67.5c-0.4,0.4-1.1,0.6-1.8,0.6c-1.7,0-2.6-0.9-2.6-2.6V61h-1.4v-1.2h1.4V58h1.5v1.8h2.4V61h-2.4v4.5
		c0,0.9,0.5,1.4,1.3,1.4c0.4,0,0.9-0.1,1.2-0.4L205.3,67.5z"/>
	<path class="st2" d="M214.6,59.8v7.1c0,2.9-1.5,4.2-4.3,4.2c-1.5,0-3-0.4-3.9-1.2l0.7-1.1c0.8,0.7,2,1.1,3.2,1.1
		c1.9,0,2.8-0.9,2.8-2.8v-0.7c-0.7,0.9-1.8,1.3-3,1.3c-2.4,0-4.2-1.6-4.2-4c0-2.4,1.8-4,4.2-4c1.2,0,2.3,0.5,3,1.4v-1.3H214.6z
		 M213.2,63.6c0-1.6-1.2-2.7-2.8-2.7c-1.7,0-2.8,1.1-2.8,2.7c0,1.6,1.2,2.7,2.8,2.7C212,66.3,213.2,65.2,213.2,63.6z"/>
	<path class="st2" d="M221.9,59.7v1.4c-0.1,0-0.2,0-0.3,0c-1.6,0-2.6,1-2.6,2.8V68h-1.5v-8.2h1.4v1.4
		C219.4,60.2,220.5,59.7,221.9,59.7z"/>
	<path class="st2" d="M222.9,63.9c0-2.5,1.8-4.2,4.3-4.2c2.5,0,4.3,1.7,4.3,4.2c0,2.5-1.8,4.2-4.3,4.2
		C224.7,68.1,222.9,66.3,222.9,63.9z M229.9,63.9c0-1.8-1.2-2.9-2.8-2.9c-1.6,0-2.8,1.1-2.8,2.9c0,1.8,1.2,2.9,2.8,2.9
		C228.8,66.8,229.9,65.6,229.9,63.9z"/>
	<path class="st2" d="M241.2,59.8V68h-1.4v-1.2c-0.6,0.9-1.6,1.3-2.8,1.3c-2.1,0-3.5-1.2-3.5-3.6v-4.7h1.5v4.6
		c0,1.6,0.8,2.4,2.2,2.4c1.6,0,2.5-1,2.5-2.7v-4.3H241.2z"/>
	<path class="st2" d="M252.5,63.9c0,2.5-1.8,4.2-4.2,4.2c-1.2,0-2.2-0.5-2.9-1.3V71H244V59.8h1.4v1.3c0.7-0.9,1.7-1.4,2.9-1.4
		C250.8,59.7,252.5,61.3,252.5,63.9z M251,63.9c0-1.7-1.2-2.9-2.8-2.9c-1.6,0-2.8,1.1-2.8,2.9c0,1.8,1.2,2.9,2.8,2.9
		C249.8,66.8,251,65.6,251,63.9z"/>
</g>
</svg>
